<svg width="256" height="256" viewBox="0 0 256 256" fill="none" xmlns="http://www.w3.org/2000/svg">
<rect width="256" height="256" rx="64" fill="#4E7BF9"/>
<path fill-rule="evenodd" clip-rule="evenodd" d="M128 59.4128C95.1744 37.505 64.0324 30.7614 47.3969 47.3969C30.7614 64.0324 37.505 95.1744 59.4128 128C37.505 160.826 30.7615 191.968 47.397 208.603C64.0324 225.239 95.1744 218.495 128 196.587C160.826 218.495 191.968 225.239 208.603 208.603C225.239 191.968 218.495 160.826 196.587 128C218.495 95.1744 225.239 64.0324 208.603 47.3969C191.968 30.7614 160.826 37.505 128 59.4128Z" fill="white"/>
<circle cx="128" cy="128" r="14.9934" fill="#222222"/>
<path d="M198.173 73.1357C198.127 63.686 193.174 58.3268 184.057 57.8596C174.94 57.3924 162.148 61.8424 147.594 70.544C133.041 79.2455 117.509 91.7309 103.321 106.132C89.1327 120.534 77.0517 136.077 68.885 150.438C60.7182 164.799 56.9046 177.204 58.0146 185.799C59.1245 194.394 65.0985 198.716 75.0428 198.119C84.987 197.522 98.3671 192.038 113.182 182.488C127.996 172.937 143.448 159.833 157.227 145.135" stroke="#222222" stroke-width="8.8" stroke-linecap="round" stroke-linejoin="round"/>
<path d="M170.546 126.254C180.957 139.342 188.94 152.26 193.593 163.548C198.246 174.835 199.382 184.043 196.874 190.129C194.366 196.216 188.314 198.938 179.402 197.989C170.489 197.04 159.071 192.457 146.44 184.759" stroke="#222222" stroke-width="8.8" stroke-linecap="round" stroke-linejoin="round"/>
<path d="M108.762 155.234C95.415 142.443 83.4957 128.342 74.5118 114.714C65.5278 101.086 59.8827 88.5429 58.2902 78.6716C56.6978 68.8002 59.2295 62.0436 65.5653 59.2562C71.9011 56.4687 81.7564 57.7756 93.8849 63.0116" stroke="#222222" stroke-width="8.8" stroke-linecap="round" stroke-linejoin="round"/>
</svg>
